<?xml version="1.0" encoding="utf-8"?>
<!-- Generator: Adobe Illustrator 28.0.0, SVG Export Plug-In . SVG Version: 6.00 Build 0)  -->
<svg version="1.1" id="Livello_1" xmlns="http://www.w3.org/2000/svg" xmlns:xlink="http://www.w3.org/1999/xlink" x="0px" y="0px"
	 viewBox="0 0 405.54 459.68" style="enable-background:new 0 0 405.54 459.68;" xml:space="preserve">
<style type="text/css">
	.st0{fill:#FFFFFF;}
	.st1{fill:#F1F2F2;}
	.st2{fill:#1885E8;}
</style>
<g>
	<g>
		<path class="st0" d="M-5267.28,749.83v0.02h16.81c0,4.72,3.93,8.65,8.65,8.65h43.04c4.72,0,8.65-3.93,8.65-8.65
			c0-4.72-3.93-8.65-8.65-8.65h-43.04c-23.78,0-43.04-19.26-43.04-43.04c0-23.78,19.26-43.04,43.04-43.04h37.34
			c21.33,0,39.02,15.5,42.44,35.86h29.42c0.1-1.47,0.15-2.96,0.15-4.46c0-34.62-28.04-62.66-62.66-62.66h-112.73v125.96H-5267.28z"
			/>
		<path class="st0" d="M-5140.19,715.71l0.57,0.29c2.86-5.54,4.94-11.52,6.09-17.81h-44.33v-0.02h-17.98c0-4.72-3.93-8.65-8.65-8.65
			h-37.34c-4.72,0-8.65,3.93-8.65,8.65c0,4.72,3.93,8.65,8.65,8.65h43.04c23.78,0,43.04,19.26,43.04,43.04
			c0,23.78-19.26,43.04-43.04,43.04h-43.04c-21.33,0-39.02-15.5-42.44-35.86h-23.59v67.11h125.03c34.62,0,62.66-28.04,62.66-62.66
			C-5120.17,743.46-5127.89,727.16-5140.19,715.71z"/>
	</g>
</g>
<g>
	<g>
		<path class="st0" d="M-4746.39,845.98v0.03h29.91c0,8.39,6.99,15.38,15.39,15.38h76.57c8.39,0,15.38-6.99,15.38-15.38
			c0-8.39-6.99-15.39-15.38-15.39h-76.57c-42.31,0-76.57-34.26-76.57-76.57c0-42.3,34.27-76.57,76.57-76.57h66.43
			c37.95,0,69.43,27.58,75.51,63.79h52.34c0.18-2.62,0.28-5.26,0.28-7.93c0-61.59-49.89-111.48-111.47-111.48h-200.56v224.11
			H-4746.39z"/>
		<path class="st0" d="M-4520.28,785.27l1.01,0.51c5.09-9.85,8.78-20.5,10.84-31.69h-78.86v-0.03h-31.99
			c0-8.39-6.99-15.38-15.38-15.38h-66.43c-8.39,0-15.39,6.99-15.39,15.38c0,8.39,6.99,15.39,15.39,15.39h76.57
			c42.31,0,76.57,34.26,76.57,76.57c0,42.3-34.27,76.57-76.57,76.57h-76.57c-37.95,0-69.43-27.58-75.51-63.79h-41.98v119.4h222.45
			c61.59,0,111.47-49.88,111.47-111.48C-4484.66,834.65-4498.4,805.63-4520.28,785.27z"/>
	</g>
	
		<text transform="matrix(1 0 0 1 -4818.5781 1054.6982)" class="st0" style="font-family:'HelveticaNeueLTStd-MdCn'; font-size:59.2161px;">BrokerSphere</text>
</g>
<g>
	<g>
		<path class="st1" d="M-5267.28,139.83v0.02h16.81c0,4.72,3.93,8.65,8.65,8.65h43.04c4.72,0,8.65-3.93,8.65-8.65
			c0-4.72-3.93-8.65-8.65-8.65h-43.04c-23.78,0-43.04-19.26-43.04-43.04c0-23.78,19.26-43.04,43.04-43.04h37.34
			c21.33,0,39.02,15.5,42.44,35.86h29.42c0.1-1.47,0.15-2.96,0.15-4.46c0-34.62-28.04-62.66-62.66-62.66h-112.73v125.96H-5267.28z"
			/>
		<path class="st2" d="M-5140.19,105.71l0.57,0.29c2.86-5.54,4.94-11.52,6.09-17.81h-44.33v-0.02h-17.98c0-4.72-3.93-8.65-8.65-8.65
			h-37.34c-4.72,0-8.65,3.93-8.65,8.65c0,4.72,3.93,8.65,8.65,8.65h43.04c23.78,0,43.04,19.26,43.04,43.04
			c0,23.78-19.26,43.04-43.04,43.04h-43.04c-21.33,0-39.02-15.5-42.44-35.86h-23.59v67.11h125.03c34.62,0,62.66-28.04,62.66-62.66
			C-5120.17,133.46-5127.89,117.16-5140.19,105.71z"/>
	</g>
</g>
<g>
	<g>
		<path class="st1" d="M-4746.39,235.98v0.03h29.91c0,8.39,6.99,15.38,15.39,15.38h76.57c8.39,0,15.38-6.99,15.38-15.38
			c0-8.39-6.99-15.39-15.38-15.39h-76.57c-42.31,0-76.57-34.26-76.57-76.57c0-42.3,34.27-76.57,76.57-76.57h66.43
			c37.95,0,69.43,27.58,75.51,63.79h52.34c0.18-2.62,0.28-5.26,0.28-7.93c0-61.59-49.89-111.48-111.47-111.48h-200.56v224.11
			H-4746.39z"/>
		<path class="st2" d="M-4520.28,175.27l1.01,0.51c5.09-9.85,8.78-20.5,10.84-31.69h-78.86v-0.03h-31.99
			c0-8.39-6.99-15.38-15.38-15.38h-66.43c-8.39,0-15.39,6.99-15.39,15.38c0,8.39,6.99,15.39,15.39,15.39h76.57
			c42.31,0,76.57,34.26,76.57,76.57c0,42.3-34.27,76.57-76.57,76.57h-76.57c-37.95,0-69.43-27.58-75.51-63.79h-41.98v119.4h222.45
			c61.59,0,111.47-49.88,111.47-111.48C-4484.66,224.65-4498.4,195.63-4520.28,175.27z"/>
	</g>
	
		<text transform="matrix(1 0 0 1 -4818.5781 444.6982)" class="st1" style="font-family:'HelveticaNeueLTStd-MdCn'; font-size:59.2161px;">BrokerSphere</text>
</g>
<g>
	<path class="st0" d="M-3782.5,226.49h11.77c2.34,0,4.23-1.9,4.23-4.24v-10.53c13.16-2.86,23.05-13.48,24.31-26.32
		c0.83-8.6-1.88-16.84-7.67-23.21c-5.7-6.28-13.83-9.89-22.29-9.89h-8.93c-2.78,0-5.45-1.19-7.32-3.26c-1.9-2.1-2.78-4.81-2.49-7.65
		c0.5-4.94,5.12-8.83,10.51-8.83h10.42c2.94,0,5.52,2.09,6.14,4.94c0.4,1.88,2.11,3.24,4.09,3.24h11.92c1.21,0,2.38-0.51,3.19-1.42
		c0.78-0.86,1.16-2.01,1.05-3.14c-1.23-12.3-10.74-21.94-22.92-23.53v-10.07c0-2.33-1.9-4.23-4.23-4.23h-11.77
		c-2.34,0-4.24,1.9-4.24,4.23v10.31c-15.26,2.89-25.83,16.88-24.3,32.55c1.48,15.2,15.2,27.11,31.22,27.11h7.68
		c2.78,0,5.45,1.2,7.32,3.26c1.9,2.09,2.78,4.81,2.49,7.63c-0.51,4.95-5.12,8.83-10.5,8.83h-10.43c-2.93,0-5.51-2.08-6.13-4.95
		c-0.41-1.86-2.13-3.21-4.09-3.21h-11.91c-1.21,0-2.38,0.51-3.19,1.41c-0.78,0.86-1.17,2.01-1.05,3.15
		c1.24,12.29,10.75,21.93,22.92,23.51v10.08C-3786.73,224.59-3784.83,226.49-3782.5,226.49z"/>
	<path class="st0" d="M-3541.07,138.46h-183.6c-0.38,4.97-2.29,9.95-5.74,13.58c-0.57,0.57-1.15,1.15-1.72,1.72
		c7.08,9.75,10.14,21.42,8.99,33.47c-1.53,15.87-10.71,29.65-24.29,37.49c-1.34,11.67-11.28,20.85-23.33,20.85h-11.67
		c-1.34,0-2.68-0.19-3.82-0.38v103.66l93.52-115.52c1.91-2.29,4.78-3.63,8.03-3.44c3.06,0.19,5.93,1.91,7.65,4.59l21.61,35.57
		l38.44-52.78l-15.3,2.29c-5.16,0.77-10.14-2.87-10.71-8.22c-0.77-5.16,2.87-9.95,8.03-10.71l37.87-5.36
		c5.16-0.77,9.95,2.87,10.71,8.04l5.55,37.87c0.57,5.16-3.06,10.13-8.23,10.9h-1.34c-4.59,0-8.8-3.44-9.37-8.22l-2.1-14.73
		l-46.48,63.69c-1.91,2.68-4.97,4.02-8.22,4.02c-3.06-0.19-5.93-1.91-7.65-4.59l-22.19-36.34l-84.73,104.81h230.08
		c5.16,0,9.56-4.21,9.56-9.56V148.03C-3531.51,142.67-3535.91,138.46-3541.07,138.46z"/>
</g>
<g>
	<path class="st2" d="M-4231.59,399.93c2.14,0,3.7-0.36,4.67-1.09c0.98-0.73,1.47-1.75,1.47-3.07c0-0.79-0.17-1.46-0.5-2.03
		c-0.33-0.56-0.8-1.08-1.42-1.53c-0.61-0.46-1.36-0.88-2.24-1.28c-0.88-0.39-1.89-0.78-3.02-1.16c-1.13-0.41-2.23-0.86-3.28-1.34
		c-1.06-0.49-1.98-1.1-2.79-1.82c-0.8-0.72-1.45-1.59-1.93-2.6c-0.49-1.01-0.73-2.22-0.73-3.64c0-2.96,1.02-5.28,3.07-6.96
		c2.05-1.69,4.83-2.53,8.36-2.53c2.04,0,3.86,0.23,5.45,0.68c1.59,0.46,2.84,0.95,3.75,1.49l-1.84,4.82
		c-1.07-0.6-2.24-1.06-3.52-1.37c-1.28-0.32-2.59-0.48-3.94-0.48c-1.61,0-2.86,0.33-3.75,0.99c-0.9,0.66-1.34,1.59-1.34,2.79
		c0,0.72,0.15,1.34,0.45,1.86c0.3,0.52,0.73,0.98,1.28,1.39c0.55,0.41,1.2,0.78,1.94,1.13c0.74,0.34,1.55,0.68,2.43,0.99
		c1.54,0.57,2.92,1.14,4.13,1.73c1.21,0.58,2.23,1.28,3.07,2.07c0.83,0.8,1.47,1.75,1.91,2.83c0.44,1.09,0.66,2.4,0.66,3.94
		c0,2.96-1.04,5.25-3.14,6.87c-2.09,1.62-5.15,2.43-9.18,2.43c-1.35,0-2.59-0.09-3.7-0.26c-1.12-0.17-2.11-0.39-2.98-0.64
		c-0.87-0.25-1.61-0.51-2.24-0.78c-0.63-0.27-1.13-0.51-1.51-0.73l1.75-4.86c0.85,0.47,2,0.94,3.44,1.41
		C-4235.38,399.7-4233.63,399.93-4231.59,399.93z"/>
	<path class="st2" d="M-4191.23,371.65v5.15h-10.06v27.57h-5.99V376.8h-10.06v-5.15H-4191.23z"/>
	<path class="st2" d="M-4157.43,387.99c0,2.8-0.42,5.27-1.25,7.41c-0.83,2.14-1.97,3.92-3.4,5.36c-1.43,1.43-3.11,2.51-5.03,3.23
		c-1.92,0.73-3.97,1.09-6.14,1.09s-4.22-0.36-6.16-1.09c-1.94-0.72-3.62-1.8-5.05-3.23c-1.43-1.43-2.57-3.22-3.42-5.36
		c-0.85-2.14-1.27-4.61-1.27-7.41s0.43-5.27,1.27-7.39c0.85-2.13,2.01-3.91,3.47-5.36c1.46-1.45,3.16-2.54,5.08-3.26
		c1.92-0.72,3.95-1.09,6.09-1.09c2.14,0,4.17,0.36,6.09,1.09c1.92,0.72,3.6,1.81,5.03,3.26c1.43,1.44,2.57,3.23,3.42,5.36
		C-4157.85,382.72-4157.43,385.19-4157.43,387.99z M-4182.97,387.99c0,1.79,0.22,3.42,0.66,4.89c0.44,1.46,1.08,2.7,1.91,3.73
		c0.83,1.02,1.85,1.82,3.05,2.38c1.2,0.57,2.55,0.85,4.06,0.85c1.48,0,2.81-0.28,4.01-0.85c1.19-0.56,2.21-1.36,3.04-2.38
		c0.83-1.02,1.47-2.26,1.91-3.73c0.44-1.47,0.66-3.09,0.66-4.89c0-1.79-0.22-3.42-0.66-4.89s-1.08-2.7-1.91-3.73
		c-0.83-1.02-1.85-1.82-3.04-2.38c-1.2-0.57-2.54-0.85-4.01-0.85c-1.51,0-2.86,0.28-4.06,0.85c-1.2,0.56-2.21,1.37-3.05,2.41
		c-0.83,1.03-1.47,2.28-1.91,3.73C-4182.75,384.57-4182.97,386.2-4182.97,387.99z"/>
	<path class="st2" d="M-4136.37,405.08c-2.46,0-4.66-0.37-6.61-1.13c-1.95-0.75-3.6-1.86-4.96-3.33c-1.35-1.46-2.39-3.25-3.11-5.36
		c-0.73-2.11-1.09-4.53-1.09-7.27c0-2.74,0.42-5.16,1.25-7.27c0.83-2.11,1.97-3.9,3.42-5.36c1.45-1.46,3.15-2.58,5.1-3.33
		s4.04-1.13,6.28-1.13c1.35,0,2.58,0.1,3.68,0.31c1.1,0.2,2.06,0.43,2.88,0.68c0.82,0.26,1.49,0.52,2.03,0.8
		c0.54,0.28,0.91,0.49,1.13,0.61l-1.74,4.86c-0.76-0.47-1.83-0.92-3.23-1.35c-1.4-0.42-2.92-0.64-4.56-0.64
		c-1.42,0-2.74,0.25-3.96,0.73c-1.23,0.49-2.29,1.22-3.19,2.19c-0.9,0.98-1.6,2.21-2.1,3.68c-0.5,1.48-0.76,3.2-0.76,5.15
		c0,1.73,0.19,3.32,0.59,4.77c0.39,1.44,1,2.7,1.82,3.75c0.82,1.06,1.86,1.87,3.11,2.46c1.26,0.58,2.77,0.87,4.53,0.87
		c2.11,0,3.82-0.21,5.15-0.64c1.32-0.43,2.34-0.83,3.07-1.2l1.61,4.86c-0.38,0.25-0.89,0.5-1.54,0.75c-0.65,0.26-1.41,0.5-2.29,0.73
		c-0.88,0.24-1.87,0.43-2.98,0.57C-4133.93,405.01-4135.11,405.08-4136.37,405.08z"/>
	<path class="st2" d="M-4101.25,404.37c-0.82-1.26-1.76-2.58-2.83-3.96c-1.07-1.38-2.2-2.73-3.38-4.02
		c-1.18-1.29-2.4-2.52-3.66-3.68c-1.26-1.17-2.5-2.17-3.73-3.02v14.68h-5.95v-32.72h5.95v13.5c1.04-1.04,2.13-2.15,3.26-3.33
		c1.13-1.18,2.26-2.37,3.38-3.59c1.12-1.21,2.18-2.38,3.19-3.52c1.01-1.13,1.92-2.15,2.74-3.07h7.13c-1.04,1.2-2.14,2.44-3.3,3.73
		c-1.17,1.29-2.36,2.59-3.59,3.9c-1.23,1.31-2.46,2.6-3.71,3.89c-1.24,1.29-2.46,2.52-3.66,3.68c1.32,1.01,2.67,2.18,4.04,3.51
		c1.37,1.34,2.71,2.77,4.04,4.3c1.32,1.53,2.59,3.11,3.8,4.77c1.21,1.65,2.32,3.3,3.33,4.93H-4101.25z"/>
	<path class="st2" d="M-4082.13,399.93c2.14,0,3.7-0.36,4.67-1.09c0.98-0.73,1.47-1.75,1.47-3.07c0-0.79-0.17-1.46-0.5-2.03
		c-0.33-0.56-0.8-1.08-1.42-1.53c-0.61-0.46-1.36-0.88-2.24-1.28c-0.88-0.39-1.89-0.78-3.02-1.16c-1.13-0.41-2.23-0.86-3.28-1.34
		c-1.06-0.49-1.98-1.1-2.79-1.82c-0.8-0.72-1.45-1.59-1.93-2.6c-0.49-1.01-0.73-2.22-0.73-3.64c0-2.96,1.02-5.28,3.07-6.96
		c2.05-1.69,4.83-2.53,8.36-2.53c2.04,0,3.86,0.23,5.45,0.68c1.59,0.46,2.84,0.95,3.75,1.49l-1.84,4.82
		c-1.07-0.6-2.24-1.06-3.52-1.37c-1.28-0.32-2.59-0.48-3.94-0.48c-1.61,0-2.86,0.33-3.75,0.99c-0.9,0.66-1.34,1.59-1.34,2.79
		c0,0.72,0.15,1.34,0.45,1.86c0.3,0.52,0.72,0.98,1.28,1.39c0.55,0.41,1.2,0.78,1.94,1.13c0.74,0.34,1.55,0.68,2.43,0.99
		c1.54,0.57,2.92,1.14,4.13,1.73c1.21,0.58,2.23,1.28,3.07,2.07c0.83,0.8,1.47,1.75,1.91,2.83c0.44,1.09,0.66,2.4,0.66,3.94
		c0,2.96-1.04,5.25-3.14,6.87c-2.09,1.62-5.15,2.43-9.18,2.43c-1.35,0-2.59-0.09-3.7-0.26c-1.12-0.17-2.11-0.39-2.98-0.64
		c-0.87-0.25-1.61-0.51-2.24-0.78c-0.63-0.27-1.13-0.51-1.51-0.73l1.75-4.86c0.85,0.47,2,0.94,3.44,1.41
		C-4085.92,399.7-4084.17,399.93-4082.13,399.93z"/>
</g>
<g>
	<path class="st2" d="M-4276.5,179.49h11.77c2.34,0,4.23-1.9,4.23-4.24v-10.53c13.16-2.86,23.05-13.48,24.31-26.32
		c0.83-8.6-1.88-16.84-7.67-23.21c-5.7-6.28-13.83-9.89-22.29-9.89h-8.93c-2.78,0-5.45-1.19-7.32-3.26c-1.9-2.1-2.78-4.81-2.49-7.65
		c0.5-4.94,5.12-8.82,10.51-8.82h10.42c2.94,0,5.52,2.09,6.14,4.94c0.4,1.88,2.12,3.24,4.09,3.24h11.92c1.21,0,2.38-0.51,3.19-1.42
		c0.78-0.86,1.16-2.01,1.05-3.14c-1.23-12.3-10.74-21.94-22.92-23.53V55.58c0-2.33-1.9-4.23-4.23-4.23h-11.77
		c-2.34,0-4.24,1.9-4.24,4.23v10.31c-15.26,2.89-25.83,16.88-24.3,32.55c1.48,15.2,15.2,27.11,31.22,27.11h7.68
		c2.78,0,5.45,1.2,7.32,3.26c1.9,2.09,2.78,4.81,2.49,7.63c-0.51,4.95-5.12,8.83-10.5,8.83h-10.43c-2.93,0-5.51-2.08-6.13-4.95
		c-0.41-1.86-2.13-3.21-4.09-3.21h-11.91c-1.21,0-2.38,0.51-3.19,1.41c-0.78,0.86-1.16,2.01-1.05,3.15
		c1.24,12.29,10.75,21.93,22.92,23.51v10.08C-4280.73,177.59-4278.83,179.49-4276.5,179.49z"/>
	<path class="st2" d="M-4035.07,91.46h-183.6c-0.38,4.97-2.3,9.95-5.74,13.58c-0.57,0.57-1.15,1.15-1.72,1.72
		c7.08,9.75,10.14,21.42,8.99,33.47c-1.53,15.87-10.71,29.65-24.29,37.49c-1.34,11.67-11.28,20.85-23.33,20.85h-11.67
		c-1.34,0-2.68-0.19-3.82-0.38v103.66l93.52-115.52c1.91-2.29,4.78-3.63,8.03-3.44c3.06,0.19,5.93,1.91,7.65,4.59l21.61,35.57
		l38.44-52.78l-15.3,2.29c-5.16,0.77-10.14-2.87-10.71-8.22c-0.77-5.16,2.87-9.95,8.03-10.71l37.87-5.36
		c5.16-0.77,9.95,2.87,10.71,8.04l5.55,37.87c0.57,5.16-3.06,10.13-8.23,10.9h-1.34c-4.59,0-8.8-3.44-9.37-8.22l-2.1-14.73
		l-46.48,63.69c-1.91,2.68-4.97,4.02-8.23,4.02c-3.06-0.19-5.93-1.91-7.65-4.59l-22.19-36.34l-84.73,104.81h230.08
		c5.16,0,9.56-4.21,9.56-9.56V101.03C-4025.51,95.67-4029.91,91.46-4035.07,91.46z"/>
</g>
<g>
	<path class="st0" d="M125.12,253.06H90.97c-2.83,0-5.13,2.3-5.13,5.13v42.62c0,2.83,2.3,5.13,5.13,5.13h34.16
		c2.84,0,5.14-2.3,5.14-5.13v-42.62C130.26,255.36,127.96,253.06,125.12,253.06z"/>
	<path class="st0" d="M189.64,212.62h-34.16c-2.83,0-5.13,2.3-5.13,5.14v83.05c0,2.83,2.3,5.13,5.13,5.13h34.16
		c2.83,0,5.13-2.3,5.13-5.13v-83.05C194.78,214.92,192.48,212.62,189.64,212.62z"/>
	<path class="st0" d="M259.3,250.42v-73.1c0-2.82-2.3-5.13-5.16-5.13h-34.13c-2.86,0-5.16,2.31-5.16,5.13v123.48
		c0,2.86,2.3,5.16,5.16,5.16h10.61C231.06,283.23,242.26,263.13,259.3,250.42z"/>
	<path class="st0" d="M323.83,239.97V136.91c0-2.86-2.31-5.17-5.17-5.17h-34.13c-2.86,0-5.17,2.3-5.17,5.17v103.1
		c6.99-2.35,14.46-3.58,22.25-3.58C309.37,236.43,316.83,237.66,323.83,239.97z"/>
	<path class="st0" d="M92,212.29l88.11-59.81l-4.7,24.58c-0.84,4.39,2.04,8.64,6.43,9.47c4.39,0.84,8.63-2.04,9.47-6.43l8.38-43.77
		c0.42-2.2-0.09-4.36-1.25-6.07c-1.17-1.71-2.99-2.98-5.18-3.4l-43.77-8.38c-4.39-0.84-8.63,2.04-9.47,6.43
		c-0.84,4.39,2.04,8.63,6.43,9.47l24.57,4.7l-88.1,59.81c-3.7,2.51-4.66,7.55-2.15,11.25C83.26,213.83,88.3,214.8,92,212.29z"/>
	<path class="st0" d="M301.6,251.31c-31.02,0-56.16,25.15-56.16,56.17c0,31.02,25.15,56.17,56.16,56.17s56.17-25.15,56.17-56.17
		C357.77,276.46,332.62,251.31,301.6,251.31z M299.03,301.93h5.1c10.54,0,19.04,9.09,17.99,19.84c-0.8,8.1-7.2,14.29-14.99,15.84
		v7.24c0,0.8-0.65,1.45-1.45,1.45h-8.15c-0.8,0-1.5-0.65-1.5-1.45v-7.14c-8-1.35-14.24-7.95-14.94-16.14c-0.1-0.85,0.65-1.6,1.5-1.6
		h8.14c0.7,0,1.35,0.45,1.45,1.15c0.55,3.3,3.4,5.79,6.85,5.79h4.69c3.5,0,6.69-2.35,7.25-5.75c0.75-4.35-2.6-8.14-6.85-8.14h-4.25
		c-9.44,0-17.89-6.85-18.79-16.24c-0.95-9.7,5.84-18.04,14.94-19.54v-7.09c0-0.85,0.7-1.5,1.5-1.5h8.15c0.8,0,1.45,0.65,1.45,1.5
		v7.09c8.04,1.35,14.29,7.95,14.99,16.19c0.05,0.85-0.65,1.55-1.5,1.55h-8.2c-0.65,0-1.3-0.45-1.4-1.1
		c-0.55-3.3-3.45-5.85-6.89-5.85h-4.69c-3.45,0-6.65,2.35-7.25,5.79C291.48,298.19,294.83,301.93,299.03,301.93z"/>
</g>
<g>
	<path class="st2" d="M-343.89,370.69c4.75,0,8.39,0.87,10.93,2.6c2.53,1.73,3.8,4.44,3.8,8.12c0,1.92-0.34,3.57-1.01,4.93
		s-1.66,2.48-2.95,3.35c-1.29,0.87-2.86,1.51-4.72,1.91c-1.86,0.41-3.98,0.61-6.37,0.61h-2.98v11.52h-5.95v-32.25
		c1.38-0.31,2.92-0.52,4.6-0.64C-346.86,370.74-345.31,370.69-343.89,370.69z M-343.47,375.83c-1.51,0-2.75,0.05-3.73,0.14v11.14
		h2.88c2.86,0,5.07-0.4,6.61-1.2c1.54-0.8,2.31-2.32,2.31-4.55c0-1.07-0.2-1.97-0.61-2.69c-0.41-0.72-0.98-1.29-1.7-1.7
		c-0.72-0.41-1.58-0.7-2.57-0.88C-341.27,375.92-342.33,375.83-343.47,375.83z"/>
	<path class="st2" d="M-314.72,370.69c4.72,0,8.33,0.87,10.84,2.6c2.5,1.73,3.75,4.37,3.75,7.93c0,4.44-2.19,7.44-6.56,9.02
		c0.6,0.73,1.27,1.61,2.03,2.64c0.76,1.04,1.53,2.17,2.32,3.38c0.79,1.21,1.54,2.45,2.26,3.73c0.72,1.28,1.37,2.53,1.94,3.75h-6.66
		c-0.6-1.13-1.24-2.27-1.94-3.42c-0.69-1.15-1.39-2.27-2.1-3.35c-0.71-1.09-1.41-2.11-2.1-3.07c-0.69-0.96-1.34-1.81-1.94-2.57
		c-0.44,0.03-0.82,0.05-1.13,0.05s-0.61,0-0.9,0h-2.88v12.37h-5.95v-32.25c1.45-0.31,2.99-0.52,4.63-0.64
		C-317.47,370.74-316.01,370.69-314.72,370.69z M-314.29,375.83c-1.26,0-2.42,0.05-3.49,0.14v10.57h2.6c1.45,0,2.72-0.08,3.82-0.24
		c1.1-0.15,2.02-0.44,2.76-0.85c0.74-0.4,1.3-0.96,1.68-1.65c0.38-0.69,0.57-1.57,0.57-2.64c0-1.01-0.19-1.86-0.57-2.55
		c-0.38-0.69-0.92-1.24-1.63-1.65c-0.71-0.41-1.55-0.7-2.53-0.88C-312.06,375.92-313.13,375.83-314.29,375.83z"/>
	<path class="st2" d="M-263.54,387.35c0,2.8-0.42,5.27-1.25,7.41c-0.83,2.14-1.97,3.92-3.4,5.36c-1.43,1.43-3.11,2.51-5.03,3.23
		c-1.92,0.73-3.97,1.09-6.14,1.09c-2.17,0-4.22-0.36-6.16-1.09c-1.94-0.72-3.62-1.8-5.05-3.23c-1.43-1.43-2.57-3.22-3.42-5.36
		c-0.85-2.14-1.27-4.61-1.27-7.41c0-2.8,0.43-5.27,1.27-7.39c0.85-2.13,2.01-3.91,3.47-5.36c1.46-1.45,3.16-2.54,5.08-3.26
		c1.92-0.72,3.95-1.09,6.09-1.09c2.14,0,4.17,0.36,6.09,1.09c1.92,0.72,3.6,1.81,5.03,3.26c1.43,1.44,2.57,3.23,3.42,5.36
		C-263.97,382.09-263.54,384.55-263.54,387.35z M-289.08,387.35c0,1.79,0.22,3.42,0.66,4.89c0.44,1.46,1.08,2.7,1.91,3.73
		c0.83,1.02,1.85,1.82,3.05,2.38c1.2,0.57,2.55,0.85,4.06,0.85c1.48,0,2.81-0.28,4.01-0.85c1.19-0.56,2.21-1.36,3.04-2.38
		c0.83-1.02,1.47-2.26,1.91-3.73c0.44-1.47,0.66-3.09,0.66-4.89c0-1.79-0.22-3.42-0.66-4.89c-0.44-1.46-1.08-2.7-1.91-3.73
		c-0.83-1.02-1.85-1.82-3.04-2.38c-1.2-0.57-2.54-0.85-4.01-0.85c-1.51,0-2.86,0.28-4.06,0.85c-1.2,0.56-2.21,1.37-3.05,2.41
		c-0.83,1.03-1.47,2.28-1.91,3.73C-288.86,383.93-289.08,385.56-289.08,387.35z"/>
	<path class="st2" d="M-257.03,403.73v-32.72h20.68v5.05h-14.73v8.36h13.08v5.05h-13.08v14.26H-257.03z"/>
	<path class="st2" d="M-231.02,371.02h5.95v32.72h-5.95V371.02z"/>
	<path class="st2" d="M-194.43,371.02v5.15h-10.06v27.57h-5.99v-27.57h-10.06v-5.15H-194.43z"/>
</g>
<g>
	<path class="st2" d="M-368.88,203.06h-34.16c-2.83,0-5.13,2.3-5.13,5.13v42.62c0,2.83,2.3,5.13,5.13,5.13h34.16
		c2.84,0,5.14-2.3,5.14-5.13v-42.62C-363.74,205.36-366.04,203.06-368.88,203.06z"/>
	<path class="st2" d="M-304.36,162.62h-34.16c-2.83,0-5.13,2.3-5.13,5.14v83.05c0,2.83,2.3,5.13,5.13,5.13h34.16
		c2.83,0,5.13-2.3,5.13-5.13v-83.05C-299.22,164.92-301.52,162.62-304.36,162.62z"/>
	<path class="st2" d="M-234.7,200.42v-73.1c0-2.82-2.3-5.13-5.16-5.13h-34.13c-2.86,0-5.16,2.31-5.16,5.13v123.48
		c0,2.86,2.3,5.16,5.16,5.16h10.61C-262.94,233.23-251.74,213.13-234.7,200.42z"/>
	<path class="st2" d="M-170.17,189.97V86.91c0-2.86-2.31-5.17-5.17-5.17h-34.13c-2.86,0-5.17,2.3-5.17,5.17v103.1
		c6.99-2.35,14.46-3.58,22.25-3.58C-184.63,186.43-177.17,187.66-170.17,189.97z"/>
	<path class="st2" d="M-402,162.29l88.11-59.81l-4.7,24.58c-0.84,4.39,2.04,8.64,6.43,9.47c4.39,0.84,8.63-2.04,9.47-6.43
		l8.38-43.77c0.42-2.2-0.09-4.36-1.25-6.07c-1.17-1.71-2.99-2.98-5.18-3.4l-43.77-8.38c-4.39-0.84-8.63,2.04-9.47,6.43
		c-0.84,4.39,2.04,8.63,6.43,9.47l24.57,4.7l-88.1,59.81c-3.7,2.51-4.66,7.55-2.15,11.25C-410.74,163.83-405.7,164.8-402,162.29z"/>
	<path class="st2" d="M-192.4,201.31c-31.02,0-56.16,25.15-56.16,56.17c0,31.02,25.15,56.17,56.16,56.17s56.17-25.15,56.17-56.17
		C-136.23,226.46-161.38,201.31-192.4,201.31z M-194.97,251.93h5.1c10.54,0,19.04,9.09,17.99,19.84c-0.8,8.1-7.2,14.29-14.99,15.84
		v7.24c0,0.8-0.65,1.45-1.45,1.45h-8.15c-0.8,0-1.5-0.65-1.5-1.45v-7.14c-8-1.35-14.24-7.95-14.94-16.14c-0.1-0.85,0.65-1.6,1.5-1.6
		h8.14c0.7,0,1.35,0.45,1.45,1.15c0.55,3.3,3.4,5.79,6.85,5.79h4.69c3.5,0,6.69-2.35,7.25-5.75c0.75-4.35-2.6-8.14-6.85-8.14h-4.25
		c-9.44,0-17.89-6.85-18.79-16.24c-0.95-9.7,5.84-18.04,14.94-19.54v-7.09c0-0.85,0.7-1.5,1.5-1.5h8.15c0.8,0,1.45,0.65,1.45,1.5
		v7.09c8.04,1.35,14.29,7.95,14.99,16.19c0.05,0.85-0.65,1.55-1.5,1.55h-8.2c-0.65,0-1.3-0.45-1.4-1.1
		c-0.55-3.3-3.45-5.85-6.89-5.85h-4.69c-3.45,0-6.65,2.35-7.25,5.79C-202.52,248.19-199.17,251.93-194.97,251.93z"/>
</g>
<g>
	<path class="st0" d="M-2847.55,337.71c-10.7,0-19.37,8.67-19.37,19.37c0,10.7,8.67,19.37,19.37,19.37s19.37-8.67,19.37-19.37
		C-2828.19,346.38-2836.86,337.71-2847.55,337.71z"/>
	<path class="st0" d="M-2758.44,337.71c-10.7,0-19.37,8.67-19.37,19.37c0,10.7,8.67,19.37,19.37,19.37s19.37-8.67,19.37-19.37
		C-2739.07,346.38-2747.74,337.71-2758.44,337.71z"/>
	<path class="st0" d="M-2707.45,208.45c-1.86-2.25-4.64-3.58-7.56-3.58h-23.48c-1.33,4.51-3.78,8.69-7.36,12.27l-30.58,30.65
		c-5.84,5.84-13.47,8.69-21.16,8.69c-7.63,0-15.26-2.85-21.1-8.69l-30.58-30.65c-3.58-3.58-6.04-7.76-7.36-12.27h-24.81l-5.44-27.66
		c-0.93-4.51-4.91-7.83-9.62-7.83h-31.84c-5.44,0-9.82,4.38-9.82,9.75s4.38,9.75,9.82,9.75h23.81l5.44,27.46c0,0.13,0,0.2,0.07,0.33
		l17.25,87.56c2.79,14.4,15.52,24.81,30.18,24.81h97.31c14.46,0,27.13-10.21,30.12-24.41l18.71-88.03
		C-2704.86,213.75-2705.59,210.77-2707.45,208.45z"/>
	<path class="st0" d="M-2804.6,233.69c1.94,1.94,4.49,2.92,7.04,2.92s5.09-0.97,7.03-2.92l30.62-30.62c3.89-3.89,3.89-10.18,0-14.07
		c-3.89-3.89-10.18-3.89-14.07,0l-13.63,13.63v-65.56c0-5.49-4.45-9.95-9.95-9.95s-9.95,4.46-9.95,9.95v65.56l-13.63-13.63
		c-3.89-3.89-10.18-3.89-14.07,0c-3.89,3.89-3.89,10.18,0,14.07L-2804.6,233.69z"/>
</g>
<g>
	<path class="st2" d="M-3285.3,424.39c-1.73,0-3.48-0.06-5.24-0.17c-1.76-0.11-3.3-0.33-4.63-0.68v-31.77
		c0.69-0.12,1.43-0.24,2.22-0.35c0.78-0.11,1.59-0.19,2.41-0.26c0.82-0.07,1.63-0.11,2.43-0.14c0.8-0.03,1.57-0.05,2.29-0.05
		c1.99,0,3.83,0.15,5.53,0.45c1.7,0.3,3.17,0.8,4.41,1.49c1.24,0.69,2.21,1.6,2.9,2.74c0.69,1.13,1.04,2.54,1.04,4.2
		c0,1.55-0.37,2.87-1.11,3.97c-0.74,1.1-1.77,1.98-3.09,2.64c1.98,0.66,3.44,1.63,4.39,2.92c0.94,1.29,1.41,2.92,1.41,4.91
		c0,3.37-1.22,5.89-3.68,7.58C-3276.47,423.55-3280.23,424.39-3285.3,424.39z M-3289.31,404.61h4.21c2.26,0,4.04-0.32,5.33-0.97
		c1.29-0.65,1.94-1.8,1.94-3.47c0-1.57-0.67-2.69-2.01-3.35s-3.07-0.99-5.21-0.99c-0.91,0-1.72,0.02-2.43,0.05
		c-0.71,0.03-1.31,0.08-1.82,0.14V404.61z M-3289.31,409.29v9.96c0.66,0.07,1.37,0.11,2.13,0.14c0.76,0.03,1.45,0.05,2.08,0.05
		c1.22,0,2.37-0.08,3.42-0.24s1.97-0.43,2.74-0.82c0.77-0.39,1.39-0.92,1.84-1.58s0.68-1.51,0.68-2.55c0-1.85-0.68-3.15-2.03-3.87
		c-1.35-0.73-3.23-1.09-5.62-1.09H-3289.31z"/>
	<path class="st2" d="M-3251.55,424.72c-2.23,0-4.15-0.32-5.76-0.97c-1.6-0.65-2.94-1.55-3.99-2.71c-1.06-1.16-1.83-2.53-2.34-4.1
		c-0.5-1.58-0.75-3.31-0.75-5.19V391.3h5.99v19.88c0,1.48,0.16,2.75,0.5,3.8c0.33,1.06,0.8,1.91,1.41,2.57
		c0.61,0.66,1.34,1.15,2.17,1.46c0.84,0.32,1.77,0.47,2.81,0.47c1.03,0,1.98-0.15,2.83-0.47c0.85-0.31,1.58-0.8,2.19-1.46
		s1.09-1.52,1.42-2.57c0.33-1.06,0.49-2.32,0.49-3.8V391.3h6v20.44c0,1.88-0.26,3.62-0.78,5.19c-0.52,1.57-1.31,2.94-2.36,4.1
		c-1.06,1.17-2.4,2.07-4.04,2.71C-3247.38,424.4-3249.31,424.72-3251.55,424.72z"/>
	<path class="st2" d="M-3219.96,405.79c1.41-2.36,2.8-4.75,4.15-7.18c1.35-2.42,2.58-4.86,3.68-7.32h6.61
		c-1.77,3.34-3.6,6.65-5.5,9.94s-3.94,6.6-6.12,9.94v12.84h-5.95v-12.74c-2.17-3.37-4.22-6.71-6.14-10.01
		c-1.92-3.3-3.76-6.62-5.52-9.96h6.99c1.1,2.46,2.31,4.9,3.63,7.32C-3222.79,401.04-3221.41,403.43-3219.96,405.79z"/>
</g>
<g>
	<path class="st2" d="M-3284.55,294.71c-10.7,0-19.37,8.67-19.37,19.37c0,10.7,8.67,19.37,19.37,19.37s19.37-8.67,19.37-19.37
		C-3265.19,303.38-3273.86,294.71-3284.55,294.71z"/>
	<path class="st2" d="M-3195.44,294.71c-10.7,0-19.37,8.67-19.37,19.37c0,10.7,8.67,19.37,19.37,19.37s19.37-8.67,19.37-19.37
		C-3176.07,303.38-3184.74,294.71-3195.44,294.71z"/>
	<path class="st2" d="M-3144.45,165.45c-1.86-2.25-4.64-3.58-7.56-3.58h-23.48c-1.33,4.51-3.78,8.69-7.36,12.27l-30.58,30.65
		c-5.84,5.84-13.47,8.69-21.16,8.69c-7.63,0-15.26-2.85-21.1-8.69l-30.58-30.65c-3.58-3.58-6.04-7.76-7.36-12.27h-24.81l-5.44-27.66
		c-0.93-4.51-4.91-7.83-9.62-7.83h-31.84c-5.44,0-9.82,4.38-9.82,9.75s4.38,9.75,9.82,9.75h23.81l5.44,27.46c0,0.13,0,0.2,0.07,0.33
		l17.25,87.56c2.79,14.4,15.52,24.81,30.18,24.81h97.31c14.46,0,27.13-10.21,30.12-24.41l18.71-88.03
		C-3141.86,170.75-3142.59,167.77-3144.45,165.45z"/>
	<path class="st2" d="M-3241.6,190.69c1.94,1.94,4.49,2.92,7.04,2.92s5.09-0.97,7.03-2.92l30.62-30.62c3.89-3.89,3.89-10.18,0-14.07
		c-3.89-3.89-10.18-3.89-14.07,0l-13.63,13.63V94.07c0-5.49-4.45-9.95-9.95-9.95s-9.95,4.46-9.95,9.95v65.56l-13.63-13.63
		c-3.89-3.89-10.18-3.89-14.07,0c-3.89,3.89-3.89,10.18,0,14.07L-3241.6,190.69z"/>
</g>
<g>
	<path class="st0" d="M-1842.31,315.71c-10.7,0-19.37,8.67-19.37,19.37c0,10.7,8.67,19.37,19.37,19.37
		c10.7,0,19.37-8.67,19.37-19.37C-1822.94,324.38-1831.61,315.71-1842.31,315.71z"/>
	<path class="st0" d="M-1753.19,315.71c-10.7,0-19.37,8.67-19.37,19.37c0,10.7,8.67,19.37,19.37,19.37
		c10.7,0,19.37-8.67,19.37-19.37C-1733.82,324.38-1742.5,315.71-1753.19,315.71z"/>
	<path class="st0" d="M-1702.21,186.45c-1.86-2.25-4.64-3.58-7.56-3.58h-52.67v21.76c0,16.52-13.4,29.85-29.85,29.85
		c-16.52,0-29.85-13.33-29.85-29.85v-21.76h-54.06l-5.44-27.66c-0.93-4.51-4.91-7.83-9.55-7.83h-31.91c-5.37,0-9.82,4.38-9.82,9.75
		s4.44,9.75,9.82,9.75h23.81l5.44,27.46c0,0.13,0.06,0.2,0.06,0.33l17.25,87.56c2.79,14.4,15.52,24.81,30.18,24.81h97.31
		c14.46,0,27.13-10.21,30.12-24.41l18.71-88.03C-1699.62,191.75-1700.35,188.77-1702.21,186.45z"/>
	<path class="st0" d="M-1815.9,152.73l13.63-13.63v65.56c0,5.49,4.45,9.95,9.95,9.95c5.5,0,9.95-4.46,9.95-9.95v-65.56l13.63,13.63
		c1.94,1.94,4.49,2.92,7.04,2.92c2.55,0,5.09-0.97,7.04-2.91c3.89-3.89,3.89-10.19,0-14.07l-30.61-30.62
		c-1.87-1.87-4.4-2.92-7.04-2.92c-2.64,0-5.17,1.05-7.04,2.91l-30.62,30.62c-3.89,3.89-3.89,10.19,0,14.07
		C-1826.09,156.61-1819.79,156.61-1815.9,152.73z"/>
</g>
<g>
	<path class="st2" d="M-2344.81,391.58c2.14,0,3.7-0.36,4.68-1.09c0.97-0.73,1.47-1.75,1.47-3.07c0-0.79-0.17-1.46-0.5-2.03
		c-0.33-0.56-0.8-1.08-1.42-1.53c-0.61-0.46-1.36-0.88-2.24-1.28c-0.89-0.39-1.89-0.78-3.02-1.16c-1.13-0.41-2.23-0.86-3.28-1.34
		c-1.06-0.49-1.98-1.1-2.79-1.82c-0.8-0.72-1.44-1.59-1.93-2.6c-0.49-1.01-0.73-2.22-0.73-3.64c0-2.96,1.02-5.28,3.07-6.96
		c2.04-1.69,4.83-2.53,8.35-2.53c2.04,0,3.86,0.23,5.45,0.68c1.59,0.46,2.84,0.95,3.75,1.49l-1.84,4.82
		c-1.07-0.6-2.24-1.06-3.52-1.37c-1.28-0.32-2.59-0.48-3.94-0.48c-1.61,0-2.86,0.33-3.75,0.99s-1.35,1.59-1.35,2.79
		c0,0.72,0.15,1.34,0.45,1.86c0.3,0.52,0.72,0.98,1.28,1.39c0.55,0.41,1.19,0.78,1.94,1.13c0.74,0.34,1.55,0.68,2.43,0.99
		c1.54,0.57,2.92,1.14,4.13,1.73c1.21,0.58,2.23,1.28,3.07,2.07c0.83,0.8,1.47,1.75,1.91,2.83c0.44,1.09,0.66,2.4,0.66,3.94
		c0,2.96-1.04,5.25-3.14,6.87c-2.09,1.62-5.15,2.43-9.18,2.43c-1.35,0-2.59-0.09-3.7-0.26c-1.12-0.17-2.11-0.39-2.98-0.64
		c-0.87-0.25-1.61-0.51-2.24-0.78c-0.63-0.27-1.14-0.51-1.51-0.73l1.75-4.86c0.85,0.47,2,0.94,3.44,1.41
		C-2348.6,391.34-2346.85,391.58-2344.81,391.58z"/>
	<path class="st2" d="M-2327.24,396.01V363.3h21.01v5.05h-15.06v8.07h13.41v4.96h-13.41v9.58h16.19v5.05H-2327.24z"/>
	<path class="st2" d="M-2278.9,390.86v5.15h-20.68V363.3h5.95v27.57H-2278.9z"/>
	<path class="st2" d="M-2253.69,390.86v5.15h-20.67V363.3h5.95v27.57H-2253.69z"/>
</g>
<g>
	<path class="st2" d="M-2330.31,266.71c-10.7,0-19.37,8.67-19.37,19.37c0,10.7,8.67,19.37,19.37,19.37s19.37-8.67,19.37-19.37
		C-2310.94,275.38-2319.61,266.71-2330.31,266.71z"/>
	<path class="st2" d="M-2241.19,266.71c-10.7,0-19.37,8.67-19.37,19.37c0,10.7,8.67,19.37,19.37,19.37
		c10.7,0,19.37-8.67,19.37-19.37C-2221.82,275.38-2230.5,266.71-2241.19,266.71z"/>
	<path class="st2" d="M-2190.21,137.45c-1.86-2.25-4.64-3.58-7.56-3.58h-52.67v21.76c0,16.52-13.4,29.85-29.85,29.85
		c-16.52,0-29.85-13.33-29.85-29.85v-21.76h-54.06l-5.44-27.66c-0.93-4.51-4.91-7.83-9.55-7.83h-31.91c-5.37,0-9.82,4.38-9.82,9.75
		c0,5.37,4.44,9.75,9.82,9.75h23.81l5.44,27.46c0,0.13,0.06,0.2,0.06,0.33l17.25,87.56c2.79,14.4,15.52,24.81,30.18,24.81h97.31
		c14.46,0,27.13-10.21,30.12-24.41l18.71-88.03C-2187.62,142.75-2188.35,139.77-2190.21,137.45z"/>
	<path class="st2" d="M-2303.9,103.73l13.63-13.63v65.56c0,5.49,4.45,9.95,9.95,9.95s9.95-4.46,9.95-9.95V90.09l13.63,13.63
		c1.94,1.94,4.49,2.92,7.04,2.92c2.55,0,5.09-0.97,7.03-2.91c3.89-3.89,3.89-10.19,0-14.07l-30.61-30.62
		c-1.87-1.87-4.4-2.92-7.04-2.92c-2.64,0-5.17,1.05-7.03,2.91l-30.62,30.62c-3.89,3.89-3.89,10.19,0,14.07
		C-2314.09,107.61-2307.79,107.61-2303.9,103.73z"/>
</g>
<g>
	<path class="st0" d="M-934.72,326.03c-2.15,2.76-1.66,6.76,1.09,8.91l45.45,35.53c2.76,2.15,6.76,1.66,8.91-1.09l19.19-24.54
		l-55.46-43.33L-934.72,326.03z"/>
	<path class="st0" d="M-690.62,247.63l-42.16,12.39c0.04,0.94,0.02,1.85-0.04,2.73c-0.79,12.16-9.69,22.26-21.65,24.58l-2.7,0.52
		c-15.52,2.99-31.37,4.66-47.1,4.97l-12.89,0.25c-4.24,0.07-7.72-3.3-7.81-7.52c-0.08-4.23,3.29-7.73,7.52-7.82l12.89-0.25
		c14.85-0.28,29.81-1.86,44.48-4.69l2.69-0.52c5.12-0.99,8.93-5.3,9.27-10.52c0.19-3.08-0.83-6.05-2.88-8.36
		c-2.09-2.3-4.91-3.66-7.97-3.82l-67.6-3.53c-7.38-0.38-14.81,1.74-20.91,5.97l-56.57,39.35l56.87,44.44l56.58,6.47
		c9.84,1.12,19.61-1.53,27.51-7.49l84.35-63.55c3.07-2.3,4.94-5.68,5.29-9.5c0.37-3.81-0.87-7.48-3.45-10.31
		C-680.35,247.63-685.61,246.17-690.62,247.63z"/>
	<path class="st0" d="M-851.52,189.19c-2.2,0-3.98,1.78-3.98,3.98v33.05c0,2.2,1.78,3.98,3.98,3.98h21.9c2.2,0,3.98-1.78,3.98-3.98
		v-33.05c0-2.2-1.78-3.98-3.98-3.98H-851.52z"/>
	<path class="st0" d="M-799.15,160.75c-2.2,0-3.98,1.79-3.98,3.98v61.49c0,2.2,1.78,3.98,3.98,3.98h21.9c2.2,0,3.98-1.78,3.98-3.98
		v-61.49c0-2.2-1.78-3.98-3.98-3.98H-799.15z"/>
	<path class="st0" d="M-746.78,189.19c-2.2,0-3.98,1.78-3.98,3.98v33.05c0,2.2,1.78,3.98,3.98,3.98h21.9c2.2,0,3.98-1.78,3.98-3.98
		v-33.05c0-2.2-1.78-3.98-3.98-3.98H-746.78z"/>
	<path class="st0" d="M-672.51,160.75h-21.9c-2.2,0-3.98,1.79-3.98,3.98v61.49c0,2.2,1.78,3.98,3.98,3.98h21.9
		c2.2,0,3.98-1.78,3.98-3.98v-61.49C-668.52,162.54-670.31,160.75-672.51,160.75z"/>
	<path class="st0" d="M-840.57,172.6c9.42,0,17.06-7.64,17.06-17.06c0-1.34-0.19-2.63-0.49-3.89l25.4-16.32
		c2.89,2.23,6.46,3.62,10.4,3.62c3.93,0,7.51-1.39,10.4-3.62l25.4,16.32c-0.3,1.26-0.49,2.55-0.49,3.89
		c0,9.43,7.64,17.06,17.06,17.06c9.42,0,17.06-7.64,17.06-17.06c0-1.34-0.19-2.63-0.49-3.89l25.4-16.32
		c2.89,2.23,6.46,3.62,10.4,3.62c9.42,0,17.06-7.64,17.06-17.06c0-9.42-7.64-17.06-17.06-17.06c-9.42,0-17.06,7.64-17.06,17.06
		c0,1.35,0.19,2.64,0.49,3.89l-25.4,16.32c-2.89-2.24-6.46-3.62-10.4-3.62c-3.94,0-7.51,1.39-10.4,3.62l-25.4-16.32
		c0.29-1.26,0.49-2.55,0.49-3.89c0-9.42-7.64-17.06-17.06-17.06c-9.42,0-17.06,7.64-17.06,17.06c0,1.35,0.19,2.64,0.49,3.89
		l-25.4,16.32c-2.89-2.24-6.46-3.62-10.4-3.62c-9.42,0-17.06,7.64-17.06,17.06C-857.64,164.96-850,172.6-840.57,172.6z"/>
</g>
<g>
	<path class="st2" d="M-1349.61,423.73c-0.44-1.29-0.9-2.57-1.37-3.82c-0.47-1.26-0.93-2.55-1.37-3.87h-13.82
		c-0.45,1.32-0.89,2.62-1.35,3.89c-0.46,1.28-0.91,2.54-1.35,3.8h-6.18c1.22-3.49,2.39-6.72,3.49-9.68c1.1-2.96,2.18-5.76,3.23-8.41
		c1.05-2.64,2.1-5.16,3.13-7.55c1.04-2.39,2.11-4.75,3.21-7.08h5.68c1.1,2.33,2.17,4.69,3.21,7.08c1.04,2.39,2.08,4.91,3.14,7.55
		c1.06,2.64,2.14,5.45,3.26,8.41c1.12,2.96,2.29,6.18,3.52,9.68H-1349.61z M-1359.26,397.34c-0.73,1.67-1.55,3.7-2.48,6.09
		c-0.93,2.39-1.9,4.99-2.9,7.79h10.76c-1-2.8-1.98-5.41-2.92-7.84C-1357.76,400.96-1358.57,398.95-1359.26,397.34z"/>
	<path class="st2" d="M-1317.04,423.73c-1.07-1.79-2.26-3.72-3.59-5.78c-1.32-2.06-2.69-4.14-4.11-6.23
		c-1.42-2.1-2.86-4.12-4.32-6.09c-1.46-1.97-2.86-3.74-4.18-5.31v23.41h-5.85v-32.72h4.86c1.26,1.32,2.61,2.89,4.06,4.7
		c1.45,1.81,2.9,3.69,4.36,5.64c1.46,1.95,2.88,3.91,4.25,5.88c1.37,1.97,2.59,3.8,3.66,5.5v-21.72h5.9v32.72H-1317.04z"/>
	<path class="st2" d="M-1282.38,423.73c-0.45-1.29-0.9-2.57-1.37-3.82c-0.48-1.26-0.93-2.55-1.37-3.87h-13.82
		c-0.44,1.32-0.89,2.62-1.35,3.89c-0.46,1.28-0.91,2.54-1.35,3.8h-6.19c1.22-3.49,2.39-6.72,3.49-9.68c1.1-2.96,2.18-5.76,3.23-8.41
		c1.06-2.64,2.1-5.16,3.14-7.55c1.04-2.39,2.11-4.75,3.21-7.08h5.68c1.1,2.33,2.17,4.69,3.21,7.08c1.04,2.39,2.08,4.91,3.14,7.55
		c1.06,2.64,2.14,5.45,3.26,8.41c1.12,2.96,2.29,6.18,3.51,9.68H-1282.38z M-1292.04,397.34c-0.72,1.67-1.55,3.7-2.48,6.09
		c-0.93,2.39-1.9,4.99-2.9,7.79h10.77c-1.01-2.8-1.98-5.41-2.93-7.84C-1290.53,400.96-1291.35,398.95-1292.04,397.34z"/>
	<path class="st2" d="M-1251.18,418.58v5.15h-20.67v-32.72h5.95v27.57H-1251.18z"/>
	<path class="st2" d="M-1240.51,405.51c1.41-2.36,2.8-4.75,4.15-7.18c1.35-2.42,2.58-4.86,3.68-7.32h6.61
		c-1.76,3.34-3.6,6.65-5.5,9.94c-1.9,3.29-3.94,6.6-6.11,9.94v12.84h-5.95v-12.74c-2.17-3.37-4.22-6.71-6.14-10.01
		c-1.92-3.3-3.76-6.62-5.53-9.96h6.99c1.1,2.46,2.32,4.9,3.64,7.32C-1243.35,400.76-1241.96,403.15-1240.51,405.51z"/>
	<path class="st2" d="M-1214.08,419.3c2.14,0,3.7-0.36,4.67-1.09c0.98-0.73,1.46-1.75,1.46-3.07c0-0.79-0.16-1.47-0.5-2.03
		c-0.33-0.56-0.8-1.08-1.41-1.53c-0.61-0.46-1.36-0.88-2.24-1.28c-0.88-0.39-1.89-0.78-3.02-1.16c-1.13-0.41-2.23-0.86-3.28-1.34
		c-1.06-0.49-1.98-1.1-2.79-1.82c-0.8-0.72-1.45-1.59-1.94-2.6s-0.73-2.22-0.73-3.64c0-2.96,1.02-5.28,3.07-6.96
		c2.05-1.69,4.83-2.53,8.36-2.53c2.04,0,3.86,0.23,5.45,0.68c1.59,0.46,2.84,0.95,3.75,1.49l-1.84,4.82
		c-1.07-0.6-2.24-1.06-3.51-1.37c-1.28-0.32-2.59-0.48-3.94-0.48c-1.6,0-2.85,0.33-3.75,0.99c-0.9,0.66-1.34,1.59-1.34,2.79
		c0,0.72,0.15,1.34,0.45,1.86c0.3,0.52,0.73,0.98,1.28,1.39c0.55,0.41,1.2,0.78,1.94,1.13c0.74,0.34,1.55,0.68,2.43,0.99
		c1.54,0.57,2.91,1.14,4.13,1.73c1.21,0.58,2.23,1.28,3.07,2.07c0.83,0.8,1.47,1.75,1.91,2.83s0.66,2.4,0.66,3.94
		c0,2.96-1.04,5.25-3.14,6.87c-2.09,1.62-5.15,2.43-9.18,2.43c-1.35,0-2.59-0.09-3.7-0.26c-1.12-0.17-2.11-0.39-2.98-0.64
		c-0.87-0.25-1.61-0.51-2.24-0.78c-0.63-0.27-1.13-0.51-1.51-0.73l1.75-4.86c0.85,0.47,2,0.94,3.45,1.41
		C-1217.87,419.06-1216.12,419.3-1214.08,419.3z"/>
	<path class="st2" d="M-1196.52,391.02h5.95v32.72h-5.95V391.02z"/>
	<path class="st2" d="M-1174.8,419.3c2.14,0,3.7-0.36,4.68-1.09c0.97-0.73,1.46-1.75,1.46-3.07c0-0.79-0.17-1.47-0.5-2.03
		c-0.33-0.56-0.8-1.08-1.42-1.53s-1.36-0.88-2.24-1.28c-0.89-0.39-1.89-0.78-3.02-1.16c-1.13-0.41-2.23-0.86-3.28-1.34
		c-1.06-0.49-1.98-1.1-2.79-1.82c-0.8-0.72-1.44-1.59-1.93-2.6c-0.49-1.01-0.73-2.22-0.73-3.64c0-2.96,1.02-5.28,3.07-6.96
		c2.04-1.69,4.83-2.53,8.35-2.53c2.04,0,3.86,0.23,5.45,0.68c1.59,0.46,2.84,0.95,3.75,1.49l-1.84,4.82
		c-1.07-0.6-2.24-1.06-3.52-1.37c-1.28-0.32-2.59-0.48-3.94-0.48c-1.61,0-2.86,0.33-3.75,0.99c-0.9,0.66-1.35,1.59-1.35,2.79
		c0,0.72,0.15,1.34,0.45,1.86c0.3,0.52,0.72,0.98,1.28,1.39c0.55,0.41,1.19,0.78,1.94,1.13c0.74,0.34,1.55,0.68,2.43,0.99
		c1.54,0.57,2.92,1.14,4.13,1.73c1.21,0.58,2.23,1.28,3.07,2.07c0.83,0.8,1.47,1.75,1.91,2.83s0.66,2.4,0.66,3.94
		c0,2.96-1.05,5.25-3.14,6.87c-2.1,1.62-5.15,2.43-9.18,2.43c-1.35,0-2.59-0.09-3.7-0.26c-1.12-0.17-2.11-0.39-2.98-0.64
		c-0.87-0.25-1.61-0.51-2.24-0.78c-0.63-0.27-1.14-0.51-1.51-0.73l1.75-4.86c0.85,0.47,2,0.94,3.44,1.41
		C-1178.59,419.06-1176.85,419.3-1174.8,419.3z"/>
</g>
<g>
	<path class="st2" d="M-1401.72,296.03c-2.15,2.76-1.66,6.76,1.09,8.91l45.45,35.53c2.76,2.15,6.76,1.66,8.91-1.09l19.19-24.54
		l-55.46-43.33L-1401.72,296.03z"/>
	<path class="st2" d="M-1157.62,217.63l-42.16,12.39c0.04,0.94,0.02,1.85-0.04,2.73c-0.79,12.16-9.69,22.26-21.65,24.58l-2.7,0.52
		c-15.52,2.99-31.37,4.66-47.1,4.97l-12.89,0.25c-4.24,0.07-7.72-3.3-7.81-7.52c-0.08-4.23,3.29-7.73,7.52-7.82l12.89-0.25
		c14.85-0.28,29.81-1.86,44.48-4.69l2.69-0.52c5.12-0.99,8.93-5.3,9.27-10.51c0.19-3.08-0.83-6.05-2.88-8.36
		c-2.09-2.3-4.91-3.66-7.97-3.82l-67.6-3.53c-7.38-0.38-14.81,1.74-20.92,5.97l-56.57,39.35l56.87,44.44l56.58,6.47
		c9.84,1.12,19.61-1.53,27.51-7.49l84.35-63.55c3.07-2.3,4.94-5.68,5.29-9.5c0.37-3.81-0.87-7.48-3.45-10.31
		C-1147.35,217.63-1152.61,216.17-1157.62,217.63z"/>
	<path class="st2" d="M-1318.52,159.19c-2.2,0-3.98,1.78-3.98,3.98v33.05c0,2.2,1.78,3.98,3.98,3.98h21.9c2.2,0,3.98-1.78,3.98-3.98
		v-33.05c0-2.2-1.78-3.98-3.98-3.98H-1318.52z"/>
	<path class="st2" d="M-1266.15,130.75c-2.2,0-3.98,1.79-3.98,3.98v61.49c0,2.2,1.78,3.98,3.98,3.98h21.9c2.2,0,3.98-1.78,3.98-3.98
		v-61.49c0-2.2-1.78-3.98-3.98-3.98H-1266.15z"/>
	<path class="st2" d="M-1213.78,159.19c-2.2,0-3.98,1.78-3.98,3.98v33.05c0,2.2,1.78,3.98,3.98,3.98h21.9c2.2,0,3.98-1.78,3.98-3.98
		v-33.05c0-2.2-1.78-3.98-3.98-3.98H-1213.78z"/>
	<path class="st2" d="M-1139.51,130.75h-21.9c-2.2,0-3.98,1.79-3.98,3.98v61.49c0,2.2,1.78,3.98,3.98,3.98h21.9
		c2.2,0,3.98-1.78,3.98-3.98v-61.49C-1135.52,132.54-1137.31,130.75-1139.51,130.75z"/>
	<path class="st2" d="M-1307.57,142.6c9.42,0,17.06-7.64,17.06-17.06c0-1.34-0.19-2.63-0.49-3.89l25.4-16.32
		c2.89,2.23,6.46,3.62,10.4,3.62c3.93,0,7.51-1.39,10.4-3.62l25.4,16.32c-0.3,1.26-0.49,2.55-0.49,3.89
		c0,9.43,7.64,17.06,17.06,17.06c9.42,0,17.06-7.64,17.06-17.06c0-1.34-0.19-2.63-0.49-3.89l25.4-16.32
		c2.89,2.23,6.46,3.62,10.4,3.62c9.42,0,17.06-7.64,17.06-17.06c0-9.42-7.64-17.06-17.06-17.06c-9.42,0-17.06,7.64-17.06,17.06
		c0,1.35,0.19,2.64,0.49,3.89l-25.4,16.32c-2.89-2.24-6.46-3.62-10.4-3.62c-3.94,0-7.51,1.39-10.4,3.62l-25.4-16.32
		c0.29-1.26,0.49-2.55,0.49-3.89c0-9.42-7.64-17.06-17.06-17.06c-9.42,0-17.06,7.64-17.06,17.06c0,1.35,0.19,2.64,0.49,3.89
		l-25.4,16.32c-2.89-2.24-6.46-3.62-10.4-3.62c-9.42,0-17.06,7.64-17.06,17.06C-1324.64,134.96-1317,142.6-1307.57,142.6z"/>
</g>
</svg>
